# xmcd CD database file
#
# Track frame offsets:
#	182
#	29912
#	63802
#	103727
#	137595
#	172012
#	205390
#	241835
#
# Disc length: 3556 seconds
#
# Revision: 1
# Processed by: cddbd v1.5.2PL0 Copyright (c) Steve Scherf et al.
# Submitted via: CDex 1.51
#
DISCID=710de208
DTITLE=The Matt Wates Sextet - Two
DYEAR=1996
DGENRE=Jazz
TTITLE0=Boat Race
TTITLE1=Blues From The Royalty
TTITLE2=Waltz for Frankie
TTITLE3=Table for Two
TTITLE4=Serendipity
TTITLE5=Jerusalem
TTITLE6=Not Forgotten
TTITLE7=The Way You Look Tonight
EXTD=YEAR: 1996
EXTT0=
EXTT1=
EXTT2=
EXTT3=
EXTT4=
EXTT5=
EXTT6=
EXTT7=
PLAYORDER=
